<?xml version="1.0" encoding="utf-8"?>
<!-- Generator: Adobe Illustrator 23.0.6, SVG Export Plug-In . SVG Version: 6.00 Build 0)  -->
<svg version="1.1" id="Layer_1" xmlns="http://www.w3.org/2000/svg" xmlns:xlink="http://www.w3.org/1999/xlink" x="0px" y="0px"
	 viewBox="0 0 2267.72 1986.21" style="enable-background:new 0 0 2267.72 1986.21;" xml:space="preserve">
<style type="text/css">
	.st0{clip-path:url(#SVGID_3_);fill:url(#SVGID_4_);}
	.st1{fill:#333333;}
	.st2{clip-path:url(#SVGID_7_);fill:url(#SVGID_8_);}
</style>
<g>
	<defs>
		<path id="SVGID_1_" d="M1229.1,1419.66l-95.15,54.93l-95.15-54.94c19-32.83,54.49-54.92,95.15-54.92
			C1174.61,1364.74,1210.1,1386.83,1229.1,1419.66 M1133.95,53.09c259.17,149.64,224.19,129.44,444.89,256.86V151.22h140.89
			c0,132.32,0,264.64,0,396.96c-169.46-107.4-370.36-169.64-585.78-169.64c-158.39,0-308.93,33.65-444.89,94.15v156.55
			c132.87-70.1,284.25-109.81,444.89-109.81c220.75,0,424.01,74.97,585.78,200.77c0,138.73,0,277.46,0,416.2
			c-41.52,23.96-83.03,47.94-124.55,71.91c-92.08-159.14-264.15-266.22-461.23-266.22c-145.91,0-278.09,58.7-374.26,153.74
			l128.26,74.05c67.23-54.35,152.81-86.91,246.01-86.91c144.94,0,271.48,78.74,339.2,195.78l-122.03,70.45
			c-43.36-74.93-124.37-125.35-217.17-125.35c-92.8,0-173.82,50.42-217.18,125.35c-122.03-70.45-244.05-140.91-366.08-211.36
			C667.13,936.6,884.72,801.2,1133.95,801.2c170.54,0,326.25,63.41,444.89,167.92V792.56c-127.89-83.62-280.71-132.25-444.89-132.25
			c-229.99,0-437.69,95.41-585.78,248.77c0-172.6,0-345.19,0-517.79L1133.95,53.09z"/>
	</defs>
	<linearGradient id="SVGID_2_" gradientUnits="userSpaceOnUse" x1="548.1703" y1="763.8396" x2="1719.7261" y2="763.8396">
		<stop  offset="0" style="stop-color:#0FCDFC"/>
		<stop  offset="1" style="stop-color:#0F3588"/>
	</linearGradient>
	<use xlink:href="#SVGID_1_"  style="overflow:visible;fill-rule:evenodd;clip-rule:evenodd;fill:url(#SVGID_2_);"/>
	<clipPath id="SVGID_3_">
		<use xlink:href="#SVGID_1_"  style="overflow:visible;"/>
	</clipPath>
	<linearGradient id="SVGID_4_" gradientUnits="userSpaceOnUse" x1="1133.9482" y1="1579.8901" x2="1133.9482" y2="-190.3354">
		<stop  offset="0" style="stop-color:#0FCDFC"/>
		<stop  offset="1" style="stop-color:#0F3588"/>
	</linearGradient>
	<rect x="548.17" y="53.09" class="st0" width="1171.56" height="1421.5"/>
</g>
<path class="st1" d="M1122.07,1717.06v-12.29h-33.89v-35.59c0-14.83-12.29-28.39-27.12-28.39h-29.23v244.89
	c-0.42,25,9.74,38.13,30.93,40.25c21.18,2.12,41.1,2.12,59.32,0.42v-42.79h-17.37c-11.01,0-16.52-5.08-16.52-14.4v-124.14h5.93
	C1109.78,1745.02,1122.07,1733.16,1122.07,1717.06 M878.03,1928.9h57.2v-116.51c0-32.62,15.67-49.15,47.03-49.15h19.06v-58.47h-8.05
	c-74.99,0-113.54,36.01-115.24,108.46V1928.9z M758.97,1747.56c23.3,0,35.17,6.36,36.44,19.07c0,12.29-12.29,19.49-36.44,22.45
	c-56.77,5.51-95.75,19.91-97.02,73.72c0,49.57,37.28,74.57,91.09,70.33c60.58-4.24,97.87-31.78,97.87-93.63v-76.26
	c-1.27-41.52-32.62-61.86-94.48-61.86c-51.69,0-80.92,20.34-87.7,61.86h56.35C728.04,1752.65,739.06,1747.56,758.97,1747.56z
	 M745.84,1887.38c-17.79,0-27.12-8.47-28.39-26.27c0-16.52,11.44-27.12,33.89-31.35c16.52-3.39,31.78-8.05,44.91-13.56v20.76
	C796.26,1868.74,777.19,1887.38,745.84,1887.38z M404.35,1750.95c25,0,37.71,11.44,38.98,34.74v143.2h56.77v-142.36
	c0.42-23.3,13.13-34.74,38.13-34.74c25,0,37.71,11.44,38.98,34.74v115.24c0,17.79,9.32,26.69,27.96,27.96h29.23v-131.76
	c0.43-63.98-31.35-95.75-95.33-95.75c-28.81,0-50.84,5.93-66.94,18.22c-16.1-12.71-38.13-19.06-66.94-19.06
	c-63.97,0-96.18,31.78-96.18,95.75v131.76h57.2v-143.2C366.65,1762.39,379.36,1750.95,404.35,1750.95z M165.82,1884.41
	c-37.71,0-57.19-15.25-59.31-45.76h-57.2c1.7,62.7,40.25,94.48,116.51,94.48c72.88,0,111.01-27.96,114.39-84.31
	c1.69-36.44-13.56-60.16-45.76-71.18c-24.15-8.47-47.03-14.83-68.64-19.91c-37.71-8.47-55.92-21.61-55.92-39.83
	c1.27-22.03,16.52-33.47,47.03-33.89c25,0,42.37,8.05,52.11,24.57c5.51,11.02,13.98,16.95,26.27,16.95h33.05
	c-3.39-59.74-38.56-89.4-106.34-89.4c-71.18-0.42-107.19,29.23-108.46,89.82c0,38.13,27.96,64.4,84.31,78.8
	c20.76,5.51,40.25,10.59,57.19,15.68c17.8,5.08,26.27,14.41,26.27,28.39C221.75,1872.55,203.53,1884.41,165.82,1884.41z"/>
<g>
	<defs>
		<path id="SVGID_5_" d="M2116.97,1747.56c24.15,0,38.13,15.25,41.52,44.91h-84.31C2078.42,1762.82,2092.82,1747.56,2116.97,1747.56
			 M2214.84,1860.26h-41.52c-7.63,0-13.98,2.54-19.06,8.05c-11.02,10.59-23.3,16.1-36.44,16.1c-27.54,0-42.37-17.37-44.49-51.69
			h144.9c4.24-87.7-29.23-131.34-100.41-131.34c-68.21,0.42-102.53,38.55-102.53,114.82c0,76.26,33.89,115.66,101.68,117.78
			C2172.05,1933.98,2202.55,1907.72,2214.84,1860.26z M1754.3,1750.95c25,0,37.71,11.44,38.98,34.74v143.2h56.77v-142.36
			c0.43-23.3,13.14-34.74,38.13-34.74s37.71,11.44,38.98,34.74v115.24c0,17.79,9.32,26.69,27.96,27.96h29.23v-131.76
			c0.42-63.98-31.35-95.75-95.33-95.75c-28.81,0-50.84,5.93-66.94,18.22c-16.1-12.71-38.13-19.06-66.94-19.06
			c-63.98,0-96.18,31.78-96.18,95.75v131.76h57.19v-143.2C1716.59,1762.39,1729.31,1750.95,1754.3,1750.95z M1529.75,1750.95
			c28.81,0,43.22,21.61,43.22,65.25c-0.43,44.49-14.83,67.37-43.64,67.37c-28.81,0-43.64-22.03-44.06-65.67
			C1485.27,1773.41,1500.09,1750.95,1529.75,1750.95z M1529.75,1701.38c-67.79,0-101.68,38.55-101.68,116.51
			c0,77.11,33.89,116.09,101.68,116.09c67.79,0,102.11-38.98,102.11-116.09C1631.86,1739.94,1597.54,1701.38,1529.75,1701.38z
			 M1164.96,1671.73v257.17h59.74v-127.53h118.2v127.53h59.74v-288.1h-59.74v107.62h-118.2V1640.8h-30.08
			C1178.1,1640.8,1164.96,1655.2,1164.96,1671.73z"/>
	</defs>
	<linearGradient id="SVGID_6_" gradientUnits="userSpaceOnUse" x1="1164.9642" y1="1787.3906" x2="2218.5862" y2="1787.3906">
		<stop  offset="0" style="stop-color:#0FCDFC"/>
		<stop  offset="1" style="stop-color:#0F3588"/>
	</linearGradient>
	<use xlink:href="#SVGID_5_"  style="overflow:visible;fill:url(#SVGID_6_);"/>
	<clipPath id="SVGID_7_">
		<use xlink:href="#SVGID_5_"  style="overflow:visible;"/>
	</clipPath>
	<linearGradient id="SVGID_8_" gradientUnits="userSpaceOnUse" x1="1164.9642" y1="1787.3906" x2="2222.4668" y2="1787.3906">
		<stop  offset="0" style="stop-color:#0FCDFC"/>
		<stop  offset="1" style="stop-color:#0F3588"/>
	</linearGradient>
	<rect x="1164.96" y="1640.8" class="st2" width="1057.5" height="293.19"/>
</g>
</svg>
